<svg xmlns="http://www.w3.org/2000/svg" width="20" height="20.002" viewBox="0 0 20 20.002">
  <path id="chat" d="M20.5,9.6A9.82,9.82,0,0,0,10.5,0,9.82,9.82,0,0,0,.5,9.6v.016a9.439,9.439,0,0,0,3.138,6.979v2.418a.98.98,0,0,0,.98.993.975.975,0,0,0,.517-.149l1.943-1.214a10.262,10.262,0,0,0,3.4.578h.015l.192,0a9.82,9.82,0,0,0,9.813-9.6V9.6Zm-5.7,3.574H10.571a.587.587,0,0,1,0-1.173H14.8a.587.587,0,1,1,0,1.173Zm0-2.595H6.2A.587.587,0,0,1,6.2,9.4H14.8s.587.263.587.586A.587.587,0,0,1,14.8,10.578Zm0-2.595H6.2a.587.587,0,0,1,0-1.173H14.8a.587.587,0,1,1,0,1.173Zm0,0" transform="translate(-0.499 -0.002)" fill="#c9c9c9"/>
</svg>
