<svg xmlns="http://www.w3.org/2000/svg" width="16" height="15.998" viewBox="0 0 16 15.998">
  <path id="house" d="M12.25,16.035H3.75A3.754,3.754,0,0,1,0,12.285V7.026A3.772,3.772,0,0,1,1.476,4.045L5.726.8a3.759,3.759,0,0,1,4.548,0l1.351,1.029v-.8a.625.625,0,0,1,1.25,0v2.06a.625.625,0,0,1-1,.5L9.516,1.8a2.506,2.506,0,0,0-3.032,0L2.234,5.039A2.514,2.514,0,0,0,1.25,7.026v5.258a2.5,2.5,0,0,0,2.5,2.5h8.5a2.5,2.5,0,0,0,2.5-2.5V7.026a2.516,2.516,0,0,0-.973-1.995.625.625,0,1,1,.758-.994A3.773,3.773,0,0,1,16,7.026v5.258A3.754,3.754,0,0,1,12.25,16.035ZM6.75,7.254a.781.781,0,1,0,.781.781A.781.781,0,0,0,6.75,7.254Zm3.281.781a.781.781,0,0,1-1.562,0A.781.781,0,0,1,10.031,8.035Zm-2.5,2.5a.781.781,0,0,1-1.562,0A.781.781,0,0,1,7.531,10.535Zm2.5,0a.781.781,0,0,1-1.562,0A.781.781,0,0,1,10.031,10.535Z" transform="translate(0 -0.037)" fill="#5e5873"/>
</svg>
