<svg xmlns="http://www.w3.org/2000/svg" width="16" height="16" viewBox="0 0 16 16">
  <path id="computer-screen" d="M12.25,16h-8.5A3.754,3.754,0,0,1,0,12.251V7.438a3.754,3.754,0,0,1,3.75-3.75h8.5A3.754,3.754,0,0,1,16,7.438V12.25A3.754,3.754,0,0,1,12.25,16ZM3.75,4.938a2.5,2.5,0,0,0-2.5,2.5v4.813a2.5,2.5,0,0,0,2.5,2.5h8.5a2.5,2.5,0,0,0,2.5-2.5V7.438a2.5,2.5,0,0,0-2.5-2.5Zm7.563,7.937V6.813a.625.625,0,1,0-1.25,0v6.062a.625.625,0,1,0,1.25,0Zm1.719-4.437a.781.781,0,1,1,.781-.781.781.781,0,0,1-.781.781m0,2.5a.781.781,0,1,0-.781-.781.781.781,0,0,0,.781.781m-3.7-8.425,0,0,1.421-1.447A.625.625,0,0,0,9.867.187L8.448,1.632a.618.618,0,0,1-.875,0L6.13.184a.625.625,0,1,0-.885.883L6.688,2.513a1.868,1.868,0,0,0,2.647,0Z" transform="translate(0 0)" fill="#5e5873"/>
</svg>
