<svg xmlns="http://www.w3.org/2000/svg" width="18" height="18" viewBox="0 0 18 18">
  <g id="Notification" transform="translate(-1 -9)">
    <path id="notification_1_" data-name="notification (1)" d="M11.109,11H5.449a.7.7,0,1,1,0-1.406h5.66a.7.7,0,1,1,0,1.406ZM18,12.516a2.113,2.113,0,0,0-1.863-2.1l-.005-.039a.7.7,0,1,0-1.393.189l.086.633a.7.7,0,0,0,.7.609h.37a.7.7,0,1,1,0,1.406H2.109a.7.7,0,1,1,0-1.406h.37a.7.7,0,0,0,.7-.606l.757-5.4A5.134,5.134,0,0,1,8.564,1.4.7.7,0,1,0,8.451,0,6.54,6.54,0,0,0,2.54,5.612L1.866,10.42a2.109,2.109,0,0,0,.243,4.2H15.891A2.112,2.112,0,0,0,18,12.516ZM18,4.43a4.43,4.43,0,1,0-4.43,4.43A4.435,4.435,0,0,0,18,4.43Zm-1.406,0A3.023,3.023,0,1,1,13.57,1.406,3.027,3.027,0,0,1,16.594,4.43ZM9.07,18A2.086,2.086,0,0,1,7,16.146a.7.7,0,0,1,1.4-.16.676.676,0,0,0,1.345,0,.7.7,0,0,1,1.4.16A2.086,2.086,0,0,1,9.07,18Zm5.2-12.48V3.34a.7.7,0,0,0-.7-.7h-.7a.7.7,0,0,0,0,1.406V5.52a.7.7,0,0,0,1.406,0Z" transform="translate(1 9)" fill="#6e6b7b"/>
  </g>
</svg>
