<svg xmlns="http://www.w3.org/2000/svg" width="14.451" height="16" viewBox="0 0 14.451 16">
  <path id="settings" d="M32,16a1.878,1.878,0,0,1-1.876-1.876v-.016a.537.537,0,0,0-.344-.5,6.02,6.02,0,0,1-1.586-.924.541.541,0,0,0-.61-.054l0,0a1.884,1.884,0,0,1-2.559-.708,1.871,1.871,0,0,1,.711-2.555l.008,0a.535.535,0,0,0,.268-.533,6.1,6.1,0,0,1,.005-1.721.543.543,0,0,0-.273-.544l-.01-.006A1.871,1.871,0,0,1,25.02,4,1.884,1.884,0,0,1,27.579,3.3l.038.021a.543.543,0,0,0,.609-.054,6.023,6.023,0,0,1,1.551-.9.539.539,0,0,0,.346-.5,1.876,1.876,0,0,1,3.752,0v.013a.539.539,0,0,0,.344.5,6.024,6.024,0,0,1,1.533.894.543.543,0,0,0,.61.055l.055-.031A1.884,1.884,0,0,1,38.977,4a1.871,1.871,0,0,1-.711,2.555l-.043.024a.533.533,0,0,0-.268.533,6.1,6.1,0,0,1,.006,1.695.537.537,0,0,0,.268.533l.038.021a1.862,1.862,0,0,1,.886,1.131,1.882,1.882,0,0,1-2.735,2.131l-.022-.012a.543.543,0,0,0-.614.057,6.024,6.024,0,0,1-1.567.92.537.537,0,0,0-.341.5v.028A1.878,1.878,0,0,1,32,16Zm-4.152-4.693a1.8,1.8,0,0,1,1.131.4,4.773,4.773,0,0,0,1.257.732,1.78,1.78,0,0,1,1.138,1.666v.016a.625.625,0,0,0,1.251,0v-.028a1.782,1.782,0,0,1,1.129-1.663A4.775,4.775,0,0,0,35,11.7a1.786,1.786,0,0,1,2.019-.174l.02.011a.63.63,0,0,0,.856-.237.621.621,0,0,0-.237-.848h0l-.039-.022a1.774,1.774,0,0,1-.89-1.791,4.85,4.85,0,0,0,0-1.346,1.792,1.792,0,0,1,.889-1.8l.045-.025a.621.621,0,0,0,.239-.849.631.631,0,0,0-.857-.236l-.053.03A1.788,1.788,0,0,1,34.97,4.25a4.775,4.775,0,0,0-1.215-.708,1.784,1.784,0,0,1-1.131-1.663V1.866a.625.625,0,0,0-1.251,0,1.783,1.783,0,0,1-1.139,1.667A4.774,4.774,0,0,0,29,4.242,1.788,1.788,0,0,1,27,4.405l-.036-.02a.631.631,0,0,0-.856.237.621.621,0,0,0,.237.848l.012.007a1.8,1.8,0,0,1,.893,1.812,4.843,4.843,0,0,0,0,1.366,1.773,1.773,0,0,1-.889,1.794l-.01.005a.621.621,0,0,0-.3.378.615.615,0,0,0,.058.471.631.631,0,0,0,.857.236,1.784,1.784,0,0,1,.882-.234ZM32,11.278a3.283,3.283,0,1,1,3.283-3.283A3.287,3.287,0,0,1,32,11.278Zm0-5.316a2.032,2.032,0,1,0,2.032,2.032A2.035,2.035,0,0,0,32,5.962Z" transform="translate(-24.775 0.001)" fill="#5e5873"/>
</svg>
