<svg xmlns="http://www.w3.org/2000/svg" width="15.993" height="16" viewBox="0 0 15.993 16">
  <path id="ticket" d="M5.763,12H3.233a.625.625,0,0,1,0-1.249h2.53A.625.625,0,0,1,5.763,12ZM8.387,8.878a.625.625,0,0,0-.625-.625H3.233a.625.625,0,0,0,0,1.249H7.762A.625.625,0,0,0,8.387,8.878ZM12.354,16a1.511,1.511,0,0,1-1.368-.884.627.627,0,0,0-1.137,0A1.511,1.511,0,0,1,8.48,16H3.857A3.753,3.753,0,0,1,.109,12.252V8A3.753,3.753,0,0,1,3.857,4.255H8.48a1.511,1.511,0,0,1,1.368.884.627.627,0,0,0,1.137,0,1.511,1.511,0,0,1,1.368-.884A3.753,3.753,0,0,1,16.1,8v4.248A3.753,3.753,0,0,1,12.354,16Zm-1.937-2.5a1.88,1.88,0,0,1,1.7,1.1.258.258,0,0,0,.232.154,2.5,2.5,0,0,0,2.5-2.5V8a2.5,2.5,0,0,0-2.5-2.5.258.258,0,0,0-.232.154,1.879,1.879,0,0,1-3.41,0A.258.258,0,0,0,8.48,5.5H3.857A2.5,2.5,0,0,0,1.358,8v4.248a2.5,2.5,0,0,0,2.5,2.5H8.48a.258.258,0,0,0,.232-.154A1.88,1.88,0,0,1,10.417,13.5Zm4.731-9.748a.625.625,0,0,1-.611-.5,2.5,2.5,0,0,0-2.952-1.943.258.258,0,0,0-.2.2A1.88,1.88,0,0,1,9.941,2.927a1.864,1.864,0,0,1-.376.038A1.881,1.881,0,0,1,8.05,2.2a.258.258,0,0,0-.258-.1L1.737,3.367A.625.625,0,1,1,1.48,2.145L7.537.87a1.512,1.512,0,0,1,1.521.589.625.625,0,0,0,1.114-.23c.422-1.7,2.855-1.373,3.979-.6A3.724,3.724,0,0,1,15.761,3a.625.625,0,0,1-.613.751ZM11.2,11.565a.781.781,0,1,1-.781-.781A.781.781,0,0,1,11.2,11.565Zm-.781-3.623a.781.781,0,1,0,.781.781A.781.781,0,0,0,10.417,7.941Z" transform="translate(-0.109 0)" fill="#5e5873"/>
</svg>
